<?xml version="1.0" encoding="utf-8"?>
<!-- Generator: Adobe Illustrator 19.2.1, SVG Export Plug-In . SVG Version: 6.00 Build 0)  -->
<svg version="1.1"
	 id="Layer_1" xmlns:cc="http://creativecommons.org/ns#" xmlns:dc="http://purl.org/dc/elements/1.1/" xmlns:inkscape="http://www.inkscape.org/namespaces/inkscape" xmlns:rdf="http://www.w3.org/1999/02/22-rdf-syntax-ns#" xmlns:sodipodi="http://sodipodi.sourceforge.net/DTD/sodipodi-0.dtd" xmlns:svg="http://www.w3.org/2000/svg"
	 xmlns="http://www.w3.org/2000/svg" xmlns:xlink="http://www.w3.org/1999/xlink" x="0px" y="0px" viewBox="0 0 100 125"
	 style="enable-background:new 0 0 100 125;" xml:space="preserve">
<g transform="translate(0,-952.36218)">
	<path d="M79.3,958.4c-0.7,0.1-1.3,0.4-1.8,0.9l-45.2,45.2c-0.5,0.5-0.8,1.1-0.9,1.8L30,1019c-0.2,1.6,1,3.1,2.7,3.3
		c0.2,0,0.4,0,0.7,0l12.7-1.4c0.7-0.1,1.3-0.4,1.8-0.8l45.2-45.2c1.2-1.2,1.2-3.1,0-4.2l0,0l-11.3-11.3
		C81.2,958.6,80.3,958.3,79.3,958.4z M79.7,965.6l7.1,7.1l-1.4,1.4l-7.1-7.1C78.3,967,79.7,965.6,79.7,965.6z M9,968.4
		c-1.6,0-3,1.7-3,3v72c0,1.6,1.4,3,3,3h72c1.6,0,3-1.4,3-3v-43c0-1.6-1.4-3-3-3s-3,1.4-3,3v40H12v-66h40c1.6,0,3-1.4,3-3s-1.4-3-3-3
		H9L9,968.4z M74,971.2l7.1,7.1L46.4,1013l-7.1-7.1L74,971.2z M36.8,1011.8l3.7,3.7l-4.1,0.5L36.8,1011.8z"/>
</g>
</svg>
