<?xml version="1.0" encoding="utf-8"?>
<!-- Generator: Adobe Illustrator 19.2.1, SVG Export Plug-In . SVG Version: 6.00 Build 0)  -->
<svg version="1.1" id="Layer_1" xmlns="http://www.w3.org/2000/svg" xmlns:xlink="http://www.w3.org/1999/xlink" x="0px" y="0px"
	 viewBox="0 0 100 125" style="enable-background:new 0 0 100 125;" xml:space="preserve">
<title>54 all</title>
<circle cx="50" cy="39.4" r="5.5"/>
<path d="M50,10.3c-16.1,0-29.1,13-29.1,29.1c0,4.3,1,8.5,2.8,12.4c0.6,1.2,1.3,2.3,2,3.4l22.1,33.2c0.8,1.2,2.4,1.5,3.6,0.7
	c0.3-0.2,0.5-0.4,0.7-0.7l22-33c8.9-13.3,5.4-31.3-8-40.2C61.4,12,55.8,10.3,50,10.3z M50,50c-5.8,0-10.5-4.7-10.5-10.5
	S44.2,29,50,29s10.5,4.7,10.5,10.5C60.5,45.2,55.8,49.9,50,50z"/>
</svg>
